<svg width="49" height="16" viewBox="0 0 49 16" fill="none" xmlns="http://www.w3.org/2000/svg">
<g id="Group">
<path id="Vector" d="M10.5524 0H0.234375V2.76597L5.46188 6.82359L2.9873 6.81925L0.601866 9.20467V16H3.37218V9.33515H8.3344L9.30206 6.82577L4.17893 2.77467H10.5502V0.00217497L10.5524 0Z" fill="white"/>
<path id="Vector_2" d="M22.4952 6.05599V2.77249L19.7227 0H14.4756L11.7031 2.77249V13.2014L14.4756 15.9848H19.7227L22.4952 13.2014V9.83311H19.7227V13.2014H14.4756V2.77249H19.7227V6.05599H22.4952Z" fill="white"/>
<path id="Vector_3" d="M35.6592 6.05599V2.77249L32.8955 0.00869821L32.8868 0H27.6397L27.631 0.00869821L24.8672 2.77249V13.2014L27.6397 15.9848H32.8868L35.6571 13.2014V9.83311H32.8868V13.2014H27.6397V2.77249H32.8868V6.05599H35.6571H35.6592Z" fill="white"/>
<path id="Vector_4" d="M40.7646 5.37058V15.9843H38.0312V0.719318L40.7689 0.00390625L46.2639 10.9003V0.00390625H48.9973V15.9887H46.1508L40.7624 5.37058H40.7646Z" fill="white"/>
</g>
</svg>
