<?xml version="1.0" encoding="UTF-8"?>
<svg id="Layer_1" xmlns="http://www.w3.org/2000/svg" version="1.1" viewBox="0 0 655.1 154">
  <!-- Generator: Adobe Illustrator 29.0.0, SVG Export Plug-In . SVG Version: 2.1.0 Build 186)  -->
  <g>
    <path d="M333.9,78.9l3.6-3.2c2.4,2.6,5.4,4.1,9.5,4.1s6.3-1.2,6.3-4-1.9-3-4.2-3.3l-4.4-.7c-4.3-.6-9.2-2.2-9.2-7.9s4.7-8.6,11.8-8.6,8.9,1.6,11.4,4.3l-3.3,3.4c-1.4-1.7-4-3.3-8.3-3.3s-5.8,1.3-5.8,3.7,1.9,3,4.2,3.3l4.4.7c4.4.6,9.2,2.1,9.2,7.8s-4.6,9-12.2,9-10.4-2.1-13-5.3Z" fill="#fff"/>
    <path d="M366.2,69.7c0-8.9,5.2-14.5,13-14.5s12.7,5.6,12.7,13.7v2.2h-19.9v.9c0,4.3,2.9,7.4,7.7,7.4s6.1-1.7,7.7-4.2l3.6,3.2c-1.9,3.2-5.7,5.7-11.4,5.7-8.5,0-13.5-5.6-13.5-14.4ZM372.1,67v.4h13.9v-.5c0-4.3-2.7-7.2-6.8-7.2s-7.1,3.1-7.1,7.3Z" fill="#fff"/>
    <path d="M397.5,83.5v-27.7h5v3.6h.3c.9-2.4,2.3-4.2,5.3-4.2s4.5,1.7,4.9,4.5h.2c1-2.5,2.6-4.5,6-4.5s5.7,3.1,5.7,8.9v19.5h-5v-18.7c0-3.8-.9-5.1-3-5.1s-3.3,1.2-3.3,3.8v20.1h-5v-18.7c0-3.8-.8-5.1-2.9-5.1s-3.3,1.2-3.3,3.8v20.1h-5Z" fill="#fff"/>
    <path d="M431.6,55.8h5.8v4.7h.3c1.6-3.3,4.3-5.4,8.4-5.4,6.5,0,10.7,5,10.7,14.5s-4.2,14.5-10.7,14.5-6.8-2-8.4-5.4h-.3v15.5h-5.8v-38.4ZM450.6,71.9v-4.5c0-4.5-2.5-7.5-6.9-7.5s-6.3,1.7-6.3,5.1v9.2c0,3.4,2.9,5.1,6.3,5.1s6.9-3,6.9-7.5Z" fill="#fff"/>
    <path d="M463.6,78.8h7.4v-18.2h-7.4v-4.7h13.2v7.4h.3c1.1-3.9,3.5-7.4,9.1-7.4h3.3v5.6h-5.5c-4.8,0-7.3,3.2-7.3,7v10.4h10v4.7h-23.2v-4.7Z" fill="#fff"/>
    <path d="M494.9,69.7c0-8.9,5.2-14.5,13-14.5s12.7,5.6,12.7,13.7v2.2h-19.9v.9c0,4.3,2.9,7.4,7.7,7.4s6.1-1.7,7.7-4.2l3.6,3.2c-1.9,3.2-5.7,5.7-11.4,5.7-8.5,0-13.5-5.6-13.5-14.4ZM500.8,67v.4h13.9v-.5c0-4.3-2.7-7.2-6.8-7.2s-7.1,3.1-7.1,7.3Z" fill="#fff"/>
    <path d="M357.1,139.7c-3.3,0-5-1.9-5.3-4.7h-.3c-1.1,3.3-4,5.3-8.3,5.3s-9.3-3.2-9.3-8.4,3.9-8.3,12.1-8.3h5.3v-2.1c0-3.7-2-5.6-6-5.6s-5.6,1.5-7.1,3.8l-3.5-2.8c1.6-3,5.3-5.5,11.2-5.5s11.3,3.5,11.3,9.8v13.9h3.5v4.6h-3.6ZM351.4,131.4v-4h-5.2c-4.3,0-6.3,1.3-6.3,3.8v1.1c0,2.5,1.9,3.8,5,3.8s6.5-1.9,6.5-4.6Z" fill="#fff"/>
    <path d="M410.8,139.7c-3.3,0-5-1.9-5.3-4.7h-.3c-1.1,3.3-4,5.3-8.3,5.3s-9.3-3.2-9.3-8.4,3.9-8.3,12.1-8.3h5.3v-2.1c0-3.7-2-5.6-6-5.6s-5.6,1.5-7.1,3.8l-3.5-2.8c1.6-3,5.3-5.5,11.2-5.5s11.3,3.5,11.3,9.8v13.9h3.5v4.6h-3.6ZM405,131.4v-4h-5.2c-4.3,0-6.3,1.3-6.3,3.8v1.1c0,2.5,1.9,3.8,5,3.8s6.5-1.9,6.5-4.6Z" fill="#fff"/>
    <path d="M420.8,112h5.8v4.7h.3c1.6-3.3,4.3-5.4,8.4-5.4,6.5,0,10.7,5,10.7,14.5s-4.2,14.5-10.7,14.5-6.8-2-8.4-5.4h-.3v15.5h-5.8v-38.4ZM439.9,128.1v-4.5c0-4.5-2.5-7.5-6.9-7.5s-6.3,1.7-6.3,5.1v9.2c0,3.4,2.9,5.1,6.3,5.1s6.9-3,6.9-7.5Z" fill="#fff"/>
    <path d="M452.8,135h7.4v-18.2h-7.4v-4.7h13.2v7.4h.3c1.1-3.9,3.5-7.4,9.1-7.4h3.3v5.6h-5.5c-4.8,0-7.3,3.2-7.3,7v10.4h10v4.7h-23.2v-4.7Z" fill="#fff"/>
    <path d="M484.2,125.9c0-8.9,5.2-14.5,13-14.5s12.7,5.6,12.7,13.7v2.2h-19.9v.9c0,4.3,2.9,7.4,7.7,7.4s6.1-1.7,7.7-4.2l3.6,3.2c-1.9,3.2-5.7,5.7-11.4,5.7-8.5,0-13.5-5.6-13.5-14.4ZM490.1,123.2v.4h13.9v-.5c0-4.3-2.7-7.2-6.8-7.2s-7.1,3.1-7.1,7.3Z" fill="#fff"/>
    <path d="M517.7,139.7v-27.7h5.8v4.7h.3c1.2-2.9,3.4-5.4,8-5.4s9.3,3.8,9.3,10.5v17.8h-5.8v-17c0-4.4-2-6.6-5.7-6.6s-6,1.6-6,4.8v18.8h-5.8Z" fill="#fff"/>
    <path d="M567.4,135h-.3c-1.6,3.3-4.3,5.4-8.4,5.4-6.5,0-10.7-5-10.7-14.5s4.2-14.5,10.7-14.5,6.8,2,8.4,5.4h.3v-16.7h5.8v39.7h-5.8v-4.7ZM567.4,130.5v-9.2c0-3.4-2.9-5.1-6.3-5.1s-6.9,3-6.9,7.5v4.5c0,4.5,2.5,7.5,6.9,7.5s6.3-1.7,6.3-5.1Z" fill="#fff"/>
    <path d="M580.7,125.9c0-8.9,5.2-14.5,13-14.5s12.7,5.6,12.7,13.7v2.2h-19.9v.9c0,4.3,2.9,7.4,7.7,7.4s6.1-1.7,7.7-4.2l3.6,3.2c-1.9,3.2-5.7,5.7-11.4,5.7-8.5,0-13.5-5.6-13.5-14.4ZM586.6,123.2v.4h13.9v-.5c0-4.3-2.7-7.2-6.8-7.2s-7.1,3.1-7.1,7.3Z" fill="#fff"/>
    <path d="M613.8,135h7.4v-18.2h-7.4v-4.7h13.2v7.4h.3c1.1-3.9,3.5-7.4,9.1-7.4h3.3v5.6h-5.5c-4.8,0-7.3,3.2-7.3,7v10.4h10v4.7h-23.2v-4.7Z" fill="#fff"/>
  </g>
  <g>
    <path d="M298.4,60.3h1.3v-5.4h-33.4v61c0,9-19.7,13.8-19.7-.8v-39.7c0-12.4-10-22.4-22.4-22.4h-14.1v5.3c5.1,1.1,10.5,8.3,10.5,18.1v42.8c0,12.3,10,22.3,22.3,22.3h.2c8.4,0,16.9-3.7,23.2-9v7h33.4v-5.4h-1.3c-3.4,0-6.2-2.8-6.2-6.2v-61.5c0-3.4,2.8-6.2,6.2-6.2Z" fill="#fff"/>
    <path d="M99.5,118.2v-42.8c0-12.3-10-22.3-22.3-22.3h-.2c-8.4,0-16.9,3.7-23.2,9v-7.1H20.4v5.4h1.3c3.4,0,6.2,2.8,6.2,6.2v61.5c0,3.4-2.8,6.2-6.2,6.2h-1.3v5.4h33.4v-60.9c0-9,19.7-13.8,19.7.8v39.6c0,12.4,10,22.4,22.4,22.4h14.1v-5.3c-5.1-1.1-10.5-8.3-10.5-18.1Z" fill="#fff"/>
    <path d="M200.1,117.9v-35.5c0-12.4-7.9-23.5-19.6-27.3-4.3-1.3-8.7-2-13.4-2-9.8,0-18.9,3.2-26.3,8.7-4.2-5.3-10.6-8.7-17.9-8.7h-14.3v5.4c5.2,1.1,10.6,8.4,10.6,18.4v35.5c0,12.4,7.9,23.5,19.6,27.3,4.3,1.3,8.7,2,13.4,2,9.8,0,19-3.2,26.3-8.7,4.2,5.3,10.6,8.7,17.9,8.7h14.3v-5.4c-5.3-1.1-10.6-8.4-10.6-18.4ZM169.5,128.5c-13.2,0-23.8-8.5-23.8-21.7v-31.1c0-3.2-.6-6.1-1.8-8.9,1.9-.5,3.9-.7,5.9-.7,13.2,0,23.8,8.5,23.8,21.7v31.2c0,3.2.7,6.1,1.8,8.8-1.9.5-3.9.7-5.9.7Z" fill="#fff"/>
  </g>
  <path d="M581.1,22.6h9.4v4.1h-9.4v18.1h9.4v4.1h-21.8v-4.1h7.8v-18.1h-7.8v-4.1h6.1c.9,0,1.7-.7,1.7-1.7v-2.5c0-1,.4-2,1.1-2.8l4.4-4.4c.7-.7,1.7-1.1,2.8-1.1h5.8v4h-9.4v8.4ZM603.4,10.1h9.9v4.1h-13.6v19.8h13.6v4.1h-9.9c-1,0-2-.4-2.8-1.1l-4.4-4.4c-.7-.7-1.1-1.7-1.1-2.8v-11.2c0-1,.4-2,1.1-2.8l4.4-4.4c.7-.7,1.7-1.1,2.8-1.1ZM625.2,30v-15.9h-7.6v-4.1h6c.9,0,1.7-.7,1.7-1.7V3.6h4.6v6.5h9.9v4.1h-9.9v19.8h9.9v4.1h-7.1c-1.1,0-2.2-.5-2.9-1.3l-3.5-4c-.6-.7-1-1.6-1-2.6ZM595.1,44.7v4.1h44.7v-4.1h-44.7Z" fill="#fff"/>
</svg>