<?xml version="1.0" encoding="UTF-8" standalone="no"?>
<!-- Created with Inkscape (http://www.inkscape.org/) -->

<svg
   width="28.601183mm"
   height="26.32638mm"
   viewBox="0 0 28.601183 26.32638"
   version="1.1"
   id="svg1"
   xml:space="preserve"
   xmlns:xlink="http://www.w3.org/1999/xlink"
   xmlns="http://www.w3.org/2000/svg"
   xmlns:svg="http://www.w3.org/2000/svg"><defs
     id="defs1"><linearGradient
       id="linearGradient16"><stop
         style="stop-color:#ffffff;stop-opacity:1;"
         offset="0.48490569"
         id="stop14" /><stop
         style="stop-color:#ad3547;stop-opacity:0.99607843;"
         offset="1"
         id="stop15" /></linearGradient><linearGradient
       id="linearGradient8"><stop
         style="stop-color:#872341;stop-opacity:1;"
         offset="0"
         id="stop7" /><stop
         style="stop-color:#be3144;stop-opacity:1;"
         offset="0.47169811"
         id="stop8" /><stop
         style="stop-color:#e17564;stop-opacity:1;"
         offset="1"
         id="stop9" /></linearGradient><linearGradient
       id="linearGradient3"><stop
         style="stop-color:#09122c;stop-opacity:1;"
         offset="0"
         id="stop3" /><stop
         style="stop-color:#872341;stop-opacity:1;"
         offset="0.46792454"
         id="stop5" /><stop
         style="stop-color:#be3144;stop-opacity:1;"
         offset="1"
         id="stop4" /></linearGradient><linearGradient
       xlink:href="#linearGradient3"
       id="linearGradient4"
       x1="15.379573"
       y1="43.562828"
       x2="34.698738"
       y2="67.351921"
       gradientUnits="userSpaceOnUse" /><linearGradient
       xlink:href="#linearGradient8"
       id="linearGradient6"
       gradientUnits="userSpaceOnUse"
       x1="15.379573"
       y1="43.562828"
       x2="34.698738"
       y2="67.351921" /><linearGradient
       xlink:href="#linearGradient3"
       id="linearGradient13"
       gradientUnits="userSpaceOnUse"
       x1="35.978397"
       y1="29.333378"
       x2="29.765961"
       y2="71.608261" /><linearGradient
       xlink:href="#linearGradient16"
       id="linearGradient14"
       x1="163.17258"
       y1="170.27707"
       x2="162.96733"
       y2="215.02078"
       gradientUnits="userSpaceOnUse" /></defs><g
     id="layer1"
     transform="translate(-12.982765,-44.207845)"><g
       id="g1"><path
         style="opacity:0.95;fill:url(#linearGradient4);fill-opacity:1;stroke-width:0.265;stroke-dasharray:none"
         id="rect3"
         width="19.928572"
         height="19.928572"
         x="14.041099"
         y="44.207851"
         d="M 16.162419,44.207851 H 31.84835 c 1.175211,0 2.12132,0.946109 2.12132,2.121321 v 15.685931 c 0,1.175211 -0.946109,2.12132 -2.12132,2.12132 H 16.162419 c -1.175212,0 -2.12132,-0.946109 -2.12132,-2.12132 V 46.329172 c 0,-1.175212 0.946108,-2.121321 2.12132,-2.121321 z"
         ry="2.1213202"
         transform="matrix(1.0723565,0,0,1.0723565,-2.0742988,-3.1987274)" /><path
         style="opacity:0.75;fill:url(#linearGradient6);fill-opacity:1;stroke-width:0.265;stroke-dasharray:none"
         id="path5"
         width="19.928572"
         height="19.928572"
         x="14.041099"
         y="44.207851"
         d="M 16.162419,44.207851 H 31.84835 c 1.175211,0 2.12132,0.946109 2.12132,2.121321 v 15.685931 c 0,1.175211 -0.946109,2.12132 -2.12132,2.12132 H 16.162419 c -1.175212,0 -2.12132,-0.946109 -2.12132,-2.12132 V 46.329172 c 0,-1.175212 0.946108,-2.121321 2.12132,-2.121321 z"
         ry="2.1213202"
         transform="matrix(1.0723565,0,0,1.0723565,1.5816486,-0.76142903)" /><path
         style="opacity:0.55;fill:url(#linearGradient13);fill-opacity:1;stroke-width:0.265;stroke-dasharray:none"
         id="path9"
         width="19.928572"
         height="19.928572"
         x="14.041099"
         y="44.207851"
         d="M 16.162419,44.207851 H 31.84835 c 1.175211,0 2.12132,0.946109 2.12132,2.121321 v 15.685931 c 0,1.175211 -0.946109,2.12132 -2.12132,2.12132 H 16.162419 c -1.175212,0 -2.12132,-0.946109 -2.12132,-2.12132 V 46.329172 c 0,-1.175212 0.946108,-2.121321 2.12132,-2.121321 z"
         ry="2.1213202"
         transform="matrix(0,-1.0723565,1.0723565,0,-27.193163,85.591289)" /><path
         style="font-weight:bold;font-size:45.8743px;font-family:'IBM Plex Mono';-inkscape-font-specification:'IBM Plex Mono Bold';white-space:pre;fill:url(#linearGradient14)"
         d="m 159.21383,206.31456 q -2.11022,0 -3.3947,-1.05511 -1.28448,-1.10098 -1.51385,-3.11945 h -0.22937 q -0.64224,2.33959 -2.56896,3.53232 -1.88085,1.19273 -4.63331,1.19273 -3.44057,0 -5.55079,-1.83497 -2.06434,-1.88084 -2.06434,-5.22967 0,-3.71582 2.70658,-5.50491 2.70659,-1.7891 7.93626,-1.7891 h 3.80756 v -1.19273 q 0,-2.11022 -1.00923,-3.16533 -0.96336,-1.10098 -3.30295,-1.10098 -2.15609,0 -3.48645,0.82574 -1.33035,0.82573 -2.29371,2.15609 l -3.71582,-3.30295 q 1.19273,-2.01847 3.71582,-3.30295 2.56896,-1.33036 6.56002,-1.33036 4.86268,0 7.56926,2.24784 2.75246,2.20197 2.75246,6.69765 v 10.36759 h 2.61484 v 4.90855 z m -9.77123,-3.89931 q 1.7891,0 3.02771,-0.87161 1.2386,-0.87162 1.2386,-2.52309 v -2.84421 h -3.62407 q -4.17456,0 -4.17456,2.79834 v 0.91748 q 0,1.23861 0.96336,1.88085 0.96336,0.64224 2.56896,0.64224 z m 17.66163,-19.77182 h 6.78939 v 4.31218 h 0.32112 q 0.87162,-2.11022 2.52309,-3.48645 1.65147,-1.37623 4.49568,-1.37623 1.9726,0 3.5782,0.73399 1.65147,0.73399 2.79833,2.24784 1.19273,1.51385 1.83497,3.85344 0.68812,2.33959 0.68812,5.55079 0,3.21121 -0.68812,5.55079 -0.64224,2.33959 -1.83497,3.85345 -1.14686,1.51385 -2.79833,2.24784 -1.6056,0.73398 -3.5782,0.73398 -2.84421,0 -4.49568,-1.33035 -1.65147,-1.37623 -2.52309,-3.53232 h -0.32112 v 13.48704 h -6.78939 z m 11.19333,18.94608 q 2.29371,0 3.53232,-1.37623 1.2386,-1.4221 1.2386,-3.89931 v -3.66995 q 0,-2.47721 -1.2386,-3.85344 -1.23861,-1.4221 -3.53232,-1.4221 -1.7891,0 -3.11946,0.87161 -1.28448,0.87161 -1.28448,2.75246 v 6.97289 q 0,1.88085 1.28448,2.75246 1.33036,0.87161 3.11946,0.87161 z"
         id="text2"
         transform="matrix(0.36912431,0,0,0.36912431,-34.244792,-14.441843)"
         aria-label="ap" /></g></g></svg>
